<svg width="80" height="80" viewBox="0 0 80 80" fill="none" xmlns="http://www.w3.org/2000/svg">
<circle cx="40" cy="40" r="40" fill="#9973C8"/>
<path d="M61.1219 15H18.7396C16.662 15 15 16.6667 15 18.6111V61.3889C15 63.3333 16.662 65 18.7396 65H61.2604C63.338 65 65 63.3333 65 61.3889V18.6111C64.8615 16.6667 63.1994 15 61.1219 15ZM29.8199 57.6389H22.3407V33.75H29.6814V57.6389H29.8199ZM26.0803 30.4167C23.7258 30.4167 21.7867 28.4722 21.7867 26.1111C21.7867 23.75 23.7258 21.9444 26.0803 21.9444C28.4349 21.9444 30.374 23.8889 30.374 26.25C30.374 28.6111 28.4349 30.4167 26.0803 30.4167ZM57.5208 57.6389H50.1801V45.9722C50.1801 43.1944 50.1801 39.5833 46.3019 39.5833C42.4238 39.5833 41.8698 42.6389 41.8698 45.6944V57.5H34.3906V33.75H41.4543V36.9444H41.5928C42.5623 35 45.0554 33.0556 48.6565 33.0556C56.1357 33.0556 57.5208 38.0556 57.5208 44.4444V57.6389Z" fill="black"/>
</svg>
