<svg width="80" height="80" viewBox="0 0 80 80" fill="none" xmlns="http://www.w3.org/2000/svg">
<circle cx="40" cy="40" r="40" fill="#9973C8"/>
<path d="M12 60.5714V19.4286C12 19.381 12.053 18.9286 12.1591 18.0714L30.1389 38.7857L12.2122 62C12.0707 61.3333 12 60.8571 12 60.5714ZM14.3867 15.2143C14.6342 15.0714 14.9347 15 15.2883 15H63.7117C64.0299 15 64.3481 15.0714 64.6663 15.2143L46.6336 36L44.2469 38.5714L39.5265 43.7857L34.8062 38.5714L32.4195 36L14.3867 15.2143ZM14.4397 64.7857L32.5256 41.4286L39.5265 49.0714L46.5275 41.4286L64.6133 64.7857C64.3304 64.9286 64.0299 65 63.7117 65H15.2883C15.0055 65 14.7226 64.9286 14.4397 64.7857ZM48.9142 38.7857L66.8409 18.0714C66.947 18.5 67 18.9524 67 19.4286V60.5714C67 61 66.947 61.4762 66.8409 62L48.9142 38.7857Z" fill="black"/>
</svg>
