<svg width="80" height="80" viewBox="0 0 80 80" fill="none" xmlns="http://www.w3.org/2000/svg">
<circle cx="40" cy="40" r="40" fill="#9973C8"/>
<path d="M39.9999 15.4055C48.0103 15.4055 48.9591 15.436 52.1225 15.5803C55.0474 15.7138 56.6359 16.2026 57.6931 16.6133C59.0933 17.1575 60.0928 17.8077 61.1426 18.8574C62.1923 19.9072 62.8425 20.9067 63.3866 22.3069C63.7974 23.3641 64.2862 24.9526 64.4197 27.8774C64.564 31.0409 64.5945 31.9897 64.5945 40.0001C64.5945 48.0104 64.564 48.9592 64.4197 52.1226C64.2862 55.0475 63.7974 56.636 63.3866 57.6933C62.8425 59.0935 62.1923 60.0929 61.1426 61.1427C60.0928 62.1924 59.0933 62.8426 57.6931 63.3867C56.6359 63.7976 55.0474 64.2863 52.1225 64.4198C48.9596 64.5641 48.0108 64.5946 39.9999 64.5946C31.9891 64.5946 31.0403 64.5641 27.8774 64.4198C24.9525 64.2863 23.364 63.7976 22.3069 63.3867C20.9065 62.8426 19.9071 62.1924 18.8573 61.1427C17.8076 60.0929 17.1574 59.0935 16.6133 57.6933C16.2024 56.636 15.7137 55.0475 15.5802 52.1227C15.4359 48.9592 15.4054 48.0104 15.4054 40.0001C15.4054 31.9897 15.4359 31.0409 15.5802 27.8775C15.7137 24.9526 16.2024 23.3641 16.6133 22.3069C17.1574 20.9067 17.8076 19.9072 18.8573 18.8574C19.9071 17.8077 20.9065 17.1575 22.3069 16.6133C23.364 16.2026 24.9525 15.7138 27.8773 15.5803C31.0408 15.436 31.9896 15.4055 39.9999 15.4055ZM39.9999 10C31.8524 10 30.8309 10.0345 27.631 10.1805C24.4378 10.3263 22.2571 10.8334 20.3487 11.575C18.376 12.3417 16.7029 13.3675 15.0352 15.0353C13.3674 16.7031 12.3416 18.3761 11.5749 20.3489C10.8332 22.2572 10.3262 24.4379 10.1804 27.6312C10.0344 30.8309 10 31.8525 10 40.0001C10 48.1476 10.0344 49.1693 10.1804 52.369C10.3262 55.5622 10.8332 57.7429 11.5749 59.6513C12.3416 61.6239 13.3674 63.2971 15.0352 64.9648C16.7029 66.6326 18.376 67.6584 20.3487 68.4251C22.2571 69.1668 24.4378 69.6738 27.631 69.8196C30.8309 69.9656 31.8524 70 39.9999 70C48.1475 70 49.1691 69.9656 52.3688 69.8196C55.5621 69.6738 57.7428 69.1668 59.6511 68.4251C61.6239 67.6584 63.2969 66.6326 64.9647 64.9648C66.6325 63.2971 67.6583 61.624 68.425 59.6513C69.1666 57.7429 69.6737 55.5622 69.8195 52.369C69.9655 49.1693 70 48.1476 70 40.0001C70 31.8525 69.9655 30.8309 69.8195 27.6312C69.6737 24.4379 69.1666 22.2572 68.425 20.3489C67.6583 18.3761 66.6325 16.7031 64.9647 15.0353C63.2969 13.3675 61.6239 12.3417 59.6511 11.575C57.7428 10.8334 55.5621 10.3263 52.3688 10.1805C49.1691 10.0345 48.1475 10 39.9999 10ZM39.9999 24.5946C31.4918 24.5946 24.5945 31.4919 24.5945 40.0001C24.5945 48.5082 31.4918 55.4055 39.9999 55.4055C48.5081 55.4055 55.4054 48.5082 55.4054 40.0001C55.4054 31.4919 48.5081 24.5946 39.9999 24.5946ZM39.9999 50.0001C34.4771 50.0001 29.9999 45.5229 29.9999 40.0001C29.9999 34.4772 34.4771 30 39.9999 30C45.5228 30 50 34.4772 50 40.0001C50 45.5229 45.5228 50.0001 39.9999 50.0001ZM59.614 23.986C59.614 25.9742 58.0023 27.586 56.014 27.586C54.0258 27.586 52.414 25.9742 52.414 23.986C52.414 21.9977 54.0258 20.386 56.014 20.386C58.0023 20.386 59.614 21.9977 59.614 23.986Z" fill="#0A0A08"/>
</svg>
